<?xml version="1.0" encoding="UTF-8" standalone="no"?>
<!-- Created with Inkscape (http://www.inkscape.org/) -->

<svg
   xmlns:osb="http://www.openswatchbook.org/uri/2009/osb"
   xmlns:dc="http://purl.org/dc/elements/1.1/"
   xmlns:cc="http://creativecommons.org/ns#"
   xmlns:rdf="http://www.w3.org/1999/02/22-rdf-syntax-ns#"
   xmlns:svg="http://www.w3.org/2000/svg"
   xmlns="http://www.w3.org/2000/svg"
   xmlns:sodipodi="http://sodipodi.sourceforge.net/DTD/sodipodi-0.dtd"
   xmlns:inkscape="http://www.inkscape.org/namespaces/inkscape"
   width="64"
   height="64"
   viewBox="0 0 59.999997 59.999997"
   id="svg2"
   version="1.1"
   inkscape:version="0.92.1 r15371"
   sodipodi:docname="lightPin.svg"
   inkscape:export-filename="C:\Marcin\Projects\marpiec.github.io\lights\Templates\newLightD.png"
   inkscape:export-xdpi="96"
   inkscape:export-ydpi="96">
  <defs
     id="defs4">
    <linearGradient
       id="linearGradient4823"
       osb:paint="solid">
      <stop
         style="stop-color:#000000;stop-opacity:1;"
         offset="0"
         id="stop4825" />
    </linearGradient>
  </defs>
  <sodipodi:namedview
     id="base"
     pagecolor="#ffffff"
     bordercolor="#666666"
     borderopacity="1.0"
     inkscape:pageopacity="0.0"
     inkscape:pageshadow="2"
     inkscape:zoom="5.9333359"
     inkscape:cx="33.267015"
     inkscape:cy="44.612485"
     inkscape:document-units="px"
     inkscape:current-layer="layer1"
     showgrid="false"
     inkscape:window-width="1858"
     inkscape:window-height="1057"
     inkscape:window-x="1974"
     inkscape:window-y="-8"
     inkscape:window-maximized="1"
     units="px" />
  <metadata
     id="metadata7">
    <rdf:RDF>
      <cc:Work
         rdf:about="">
        <dc:format>image/svg+xml</dc:format>
        <dc:type
           rdf:resource="http://purl.org/dc/dcmitype/StillImage" />
        <dc:title />
      </cc:Work>
    </rdf:RDF>
  </metadata>
  <g
     inkscape:label="Layer 1"
     inkscape:groupmode="layer"
     id="layer1"
     transform="translate(0,-992.3622)">
    <path
       style="opacity:0.98999999;fill:#ffdc00;fill-opacity:0.82745099;stroke:#ee7b00;stroke-width:0.08109874;stroke-linejoin:round;stroke-miterlimit:4;stroke-dasharray:none;stroke-opacity:1"
       id="path6219"
       sodipodi:type="arc"
       sodipodi:cx="-28.472788"
       sodipodi:cy="1022.4448"
       sodipodi:rx="14.643293"
       sodipodi:ry="14.64327"
       sodipodi:start="0"
       sodipodi:end="6.2515948"
       sodipodi:open="true"
       d="m -13.829494,1022.4448 a 14.643293,14.64327 0 0 1 -14.527648,14.6428 14.643293,14.64327 0 0 1 -14.757113,-14.4115 14.643293,14.64327 0 0 1 14.294558,-14.8704 14.643293,14.64327 0 0 1 14.982896,14.1766"
       transform="scale(-1,1)"
       inkscape:export-xdpi="96"
       inkscape:export-ydpi="96" />
    <path
       style="fill:#ff6600;fill-opacity:1;stroke:none;stroke-width:0.10535545;stroke-linecap:butt;stroke-linejoin:miter;stroke-miterlimit:0;stroke-dasharray:none;stroke-dashoffset:0;stroke-opacity:1"
       d="m 28.682524,1006.0235 c 4.687137,0.059 9.176164,2.2847 12.499178,6.2128 7.009152,8.2854 4.315995,17.2212 -1.96711,26.07 -7.346328,10.3461 -10.586756,11.3991 -10.586756,11.3991 0,0 -3.092842,-0.7576 -10.861593,-11.3991 -6.398973,-8.7654 -8.9762539,-17.7846 -1.967103,-26.07 3.301784,-3.903 7.760335,-6.1312 12.429245,-6.2118 0.15158,0 0.30294,0 0.454139,0 z m -0.192103,2.8482 c -7.498335,0 -13.576926,5.876 -13.576949,13.1244 2.3e-5,7.2484 6.078614,13.1243 13.576949,13.1243 7.498335,0 13.576927,-5.8759 13.576942,-13.1243 -1.5e-5,-7.2484 -6.078607,-13.1244 -13.576942,-13.1244 z"
       id="circle4341"
       inkscape:connector-curvature="0"
       sodipodi:nodetypes="ssscsscsssssss"
       inkscape:export-xdpi="300"
       inkscape:export-ydpi="300" />
  </g>
</svg>
